<svg width="147" height="63" viewBox="0 0 147 63" fill="none" xmlns="http://www.w3.org/2000/svg">
<path d="M1 25.1741L12.6531 3.65088H113.583L132.177 25.4924V51.7915H1.19103L1 25.1741Z" fill="#FCB915" stroke="#1D1D1B" stroke-width="0.470729" stroke-miterlimit="10"/>
<path d="M22.7149 8.67908L17.3658 21.0967H48.2507V8.67908H22.7149Z" fill="white" stroke="black" stroke-width="0.470729" stroke-miterlimit="10"/>
<path d="M84.676 8.67908H53.5363V21.0967H84.676V8.67908Z" fill="white" stroke="black" stroke-width="0.470729" stroke-miterlimit="10"/>
<path d="M92.1902 8.67908V21.0967H122.375L112.441 8.67908H92.1902Z" fill="white" stroke="black" stroke-width="0.470729" stroke-miterlimit="10"/>
<path d="M27.8731 62.3642C33.2189 62.3642 37.5525 58.0305 37.5525 52.6847C37.5525 47.339 33.2189 43.0053 27.8731 43.0053C22.5273 43.0053 18.1937 47.339 18.1937 52.6847C18.1937 58.0305 22.5273 62.3642 27.8731 62.3642Z" fill="black" stroke="black" stroke-width="0.470729" stroke-miterlimit="10"/>
<path d="M27.8731 58.4797C31.0735 58.4797 33.668 55.8852 33.668 52.6847C33.668 49.4843 31.0735 46.8898 27.8731 46.8898C24.6727 46.8898 22.0782 49.4843 22.0782 52.6847C22.0782 55.8852 24.6727 58.4797 27.8731 58.4797Z" fill="white"/>
<path d="M104.735 62.3642C110.081 62.3642 114.415 58.0305 114.415 52.6847C114.415 47.339 110.081 43.0053 104.735 43.0053C99.3895 43.0053 95.0558 47.339 95.0558 52.6847C95.0558 58.0305 99.3895 62.3642 104.735 62.3642Z" fill="black" stroke="black" stroke-width="0.470729" stroke-miterlimit="10"/>
<path d="M104.735 58.4797C107.936 58.4797 110.53 55.8852 110.53 52.6847C110.53 49.4843 107.936 46.8898 104.735 46.8898C101.535 46.8898 98.9404 49.4843 98.9404 52.6847C98.9404 55.8852 101.535 58.4797 104.735 58.4797Z" fill="white"/>
<path d="M13.0993 9.06119L6.47656 21.2878H11.762L18.0664 9.06119H13.0993Z" fill="black" stroke="black" stroke-width="0.470729" stroke-miterlimit="10"/>
<path d="M2.01898 23.2008H126.514" stroke="black" stroke-width="0.470729" stroke-miterlimit="10"/>
<path d="M1 25.8116H126.387" stroke="black" stroke-width="0.470729" stroke-miterlimit="10"/>
<path d="M87.0322 6.70749V51.5384" stroke="black" stroke-width="0.470729" stroke-miterlimit="10"/>
<path d="M50.3522 6.70749V51.5384" stroke="black" stroke-width="0.470729" stroke-miterlimit="10"/>
<path d="M13.2266 6.45282H113.332L126.259 22.3729V51.7109" stroke="black" stroke-width="0.470729" stroke-miterlimit="10"/>
<path d="M136 44.4509L132.4 42.5309H130.6V51.1709L136 50.6909V44.4509Z" fill="black" stroke="black" stroke-width="0.470729"/>
</svg>
