<svg width="62" height="63" viewBox="0 0 62 63" fill="none" xmlns="http://www.w3.org/2000/svg">
<rect x="3.5615" y="3.87433" width="57.7289" height="58.5198" fill="white" stroke="#222222" stroke-width="0.5"/>
<rect x="0.75" y="0.75" width="57.7289" height="58.5198" fill="white" stroke="#222222" stroke-width="0.5"/>
<path d="M31.7564 38.3652V38.1152H31.5064H24.036C19.7743 38.1152 16.3157 41.5738 16.3157 45.8354C16.3157 50.0971 19.7743 53.5556 24.036 53.5556C28.2977 53.5556 31.7564 50.0971 31.7564 45.8354V38.3652Z" stroke="black" stroke-width="0.5"/>
<path d="M31.7563 23.4248V23.1748H31.5063H24.036C19.7742 23.1748 16.3156 26.6334 16.3156 30.895C16.3156 35.1566 19.7742 38.6152 24.036 38.6152H31.5063H31.7563V38.3652V23.4248Z" stroke="black" stroke-width="0.5"/>
<path d="M31.7565 8.48438V8.23438H31.5065H24.0361C19.7744 8.23438 16.3157 11.693 16.3157 15.9546C16.3157 20.2162 19.7744 23.6748 24.0361 23.6748H31.5065H31.7565V23.4248V8.48438Z" stroke="black" stroke-width="0.5"/>
<path d="M31.5064 8.23438H31.2564V8.48438L31.2564 23.4248V23.6748H31.5064H38.9768C43.2385 23.6748 46.6971 20.2162 46.6971 15.9546C46.6971 11.693 43.2385 8.23438 38.9768 8.23438H31.5064Z" stroke="black" stroke-width="0.5"/>
<path d="M38.9768 38.6152C43.2385 38.6152 46.6972 35.1566 46.6972 30.895C46.6972 26.6334 43.2385 23.1748 38.9768 23.1748C34.7151 23.1748 31.2565 26.6334 31.2565 30.895C31.2565 35.1566 34.7151 38.6152 38.9768 38.6152Z" stroke="black" stroke-width="0.5"/>
</svg>
