<svg width="63" height="63" viewBox="0 0 63 63" fill="none" xmlns="http://www.w3.org/2000/svg">
<rect x="4.26093" y="3.90759" width="57.7289" height="58.5198" fill="white" stroke="#222222" stroke-width="0.5"/>
<rect x="1.13654" y="1.09619" width="57.7289" height="58.5198" fill="white" stroke="#222222" stroke-width="0.5"/>
<g clip-path="url(#clip0_544_398)">
<path d="M17.9643 11.858H43.1518C46.8324 11.858 49.808 14.8336 49.808 18.5143V42.7268C49.808 46.4075 46.8324 49.383 43.1518 49.383H17.9643C14.2836 49.383 11.308 46.4075 11.308 42.7268V18.5143C11.308 14.8336 14.2836 11.858 17.9643 11.858Z" stroke="black" stroke-width="0.5"/>
<path d="M23.863 34.108H23.6811L23.6252 34.2811L22.3901 38.0999L22.3865 38.1111L22.384 38.1226C22.3806 38.1376 22.3734 38.1462 22.3675 38.1506C22.362 38.1547 22.3556 38.1568 22.3469 38.1558L22.3331 38.1543H22.3193H19.3354L24.5542 23.1301L24.5544 23.1302L24.5575 23.1199C24.5728 23.069 24.5875 23.0182 24.6025 22.967C24.6375 22.8469 24.6732 22.7243 24.7177 22.5909L24.723 22.575L24.7261 22.5586C24.7898 22.2239 24.8236 21.8755 24.8276 21.5268H28.9053L34.7976 38.1543H31.5005H31.4828L31.4805 38.1546L31.4769 38.1441L30.1444 34.2766L29.908 34.358V34.108H23.863ZM28.933 31.3093H29.2645L29.1734 30.9906C29.0744 30.6443 28.9431 30.234 28.796 29.8089C28.651 29.3738 28.5057 28.9057 28.36 28.42L28.36 28.4199L28.3584 28.415C28.2776 28.1646 28.2008 27.9179 28.1236 27.6699L28.1233 27.669C28.0463 27.4217 27.9688 27.173 27.8872 26.92C27.7252 26.4177 27.5801 25.9503 27.4515 25.4841L27.4515 25.4841L27.4509 25.4819C27.3945 25.2846 27.3404 25.0903 27.2877 24.9014C27.2208 24.6615 27.1564 24.4304 27.093 24.213L27.0405 24.033H26.853H26.8205H26.6174L26.5758 24.2318C26.4311 24.9233 26.2545 25.6132 26.0303 26.3019L26.0303 26.3019L26.0294 26.3047C25.9358 26.6042 25.8427 26.9069 25.7489 27.2119C25.5969 27.7059 25.4431 28.206 25.2824 28.7081L25.2822 28.708L25.2794 28.7181C25.0536 29.5408 24.8117 30.2986 24.5701 30.9752L24.8055 31.0593V31.3093H28.933Z" stroke="black" stroke-width="0.5"/>
<path d="M38.6977 23.871L38.6866 23.8703L38.6754 23.8707C38.2126 23.8847 37.7592 23.7034 37.4154 23.3767C37.0904 23.0204 36.9198 22.5504 36.9342 22.0642L36.9344 22.0568L36.9342 22.0495C36.9199 21.5662 37.1043 21.1149 37.4422 20.7911C37.7827 20.4647 38.2395 20.2918 38.7155 20.2918C39.2924 20.2918 39.7096 20.4666 40.0118 20.7815C40.3241 21.1233 40.4949 21.5791 40.4806 22.0492L40.4804 22.0567L40.4806 22.0642C40.495 22.5526 40.3229 23.0229 39.9814 23.3787L39.9813 23.3788C39.6601 23.714 39.1798 23.8993 38.6977 23.871ZM37.113 38.2256V25.7356H40.253V38.2256C40.253 38.2291 40.253 38.2324 40.2529 38.2356H37.1132C37.1131 38.2325 37.113 38.2292 37.113 38.2256Z" stroke="black" stroke-width="0.5"/>
</g>
<defs>
<clipPath id="clip0_544_398">
<rect width="39" height="38.025" fill="white" transform="translate(11.058 11.608)"/>
</clipPath>
</defs>
</svg>
