<svg width="62" height="63" viewBox="0 0 62 63" fill="none" xmlns="http://www.w3.org/2000/svg">
<rect x="3.73026" y="3.73016" width="57.7289" height="58.5198" fill="white" stroke="#222222" stroke-width="0.5"/>
<rect x="0.75" y="0.75" width="57.7289" height="58.5198" fill="white" stroke="#222222" stroke-width="0.5"/>
<g clip-path="url(#clip0_544_362)">
<path d="M17.5777 11.25H42.7652C46.444 11.25 49.4215 14.2491 49.4215 17.9633V42.3757C49.4215 46.0899 46.444 49.089 42.7652 49.089H17.5777C13.899 49.089 10.9215 46.0899 10.9215 42.3757V17.9633C10.9215 14.2491 13.899 11.25 17.5777 11.25Z" stroke="black" stroke-width="0.5"/>
<path d="M24.5914 21.0234C24.5914 21.0233 24.5915 21.0243 24.5915 21.0265L24.5914 21.0234ZM21.4677 21.0641H24.5849L24.5893 21.0952L24.5915 21.0973V37.9028C24.5915 37.9072 24.5914 37.9113 24.5913 37.915H21.4679C21.4678 37.9112 21.4677 37.9071 21.4677 37.9028V21.0641Z" stroke="black" stroke-width="0.5"/>
<path d="M39.3852 37.3458L39.2871 37.1158C38.4603 37.4685 37.5847 37.7255 36.6922 37.8862L36.6918 37.8862C35.8931 38.0312 35.063 38.1116 34.234 38.1116V38.3616L34.2306 38.1116C33.064 38.1275 31.899 37.889 30.8459 37.3977L30.8455 37.3975C29.87 36.9448 29.0617 36.1939 28.5006 35.267C27.929 34.3167 27.6427 33.1195 27.6427 31.6604L27.6427 31.6571C27.6271 30.4894 27.9244 29.3377 28.5031 28.3282C29.0984 27.3018 29.9593 26.4501 30.9907 25.8829L30.9907 25.8829L30.9927 25.8818C32.0844 25.2685 33.4049 24.9635 34.9815 24.9635C35.0612 24.9635 35.1633 24.9636 35.2949 24.9784C35.3769 24.9876 35.4615 24.992 35.544 24.996L35.5623 24.9969C35.6407 25.0007 35.7199 25.0046 35.8055 25.0118L36.0765 25.0346V24.7627V19.6551H39.2002V35.1503C39.2002 35.4242 39.2139 35.725 39.2285 36.0455C39.23 36.0783 39.2315 36.1114 39.233 36.1446L39.2327 36.1446L39.2338 36.1568C39.2608 36.4428 39.2764 36.7168 39.2905 36.9646C39.2929 37.0069 39.2953 37.0484 39.2976 37.0891C39.2971 37.103 39.2947 37.1099 39.2938 37.1121L39.2926 37.1129C39.2914 37.1137 39.2893 37.1149 39.2861 37.1163L39.3852 37.3458ZM39.3852 37.3458C39.499 37.2966 39.5477 37.1983 39.5477 37.0836L36.7365 38.1322C37.6465 37.9684 38.5402 37.7062 39.3852 37.3458ZM36.0772 19.5732C36.0772 19.5732 36.0771 19.5737 36.0769 19.5747L36.0772 19.5732ZM36.0765 27.8757V27.6755L35.8811 27.6317L35.8752 27.6304C35.7329 27.5985 35.5754 27.5632 35.4156 27.5453L35.4156 27.5453L35.4105 27.5448L35.4054 27.5443C35.23 27.5283 35.0417 27.511 34.8515 27.511C34.1843 27.511 33.5105 27.6489 32.9014 27.9644C32.3118 28.2619 31.8086 28.6996 31.4274 29.2586C31.0335 29.8364 30.8482 30.594 30.8477 31.4767C30.831 32.0819 30.9342 32.6852 31.1388 33.2526L31.1393 33.254C31.3133 33.7278 31.5758 34.1523 31.9277 34.5071L31.9277 34.5072L31.9325 34.5118C32.2667 34.831 32.6727 35.0809 33.1333 35.2243C33.5997 35.3807 34.0809 35.4494 34.559 35.4494C34.8059 35.4494 35.0354 35.4333 35.2422 35.4173C35.4845 35.4332 35.7087 35.3942 35.9125 35.3195L35.8265 35.0847H36.0765V27.8757Z" stroke="black" stroke-width="0.5"/>
</g>
<defs>
<clipPath id="clip0_544_362">
<rect width="39" height="38.339" fill="white" transform="translate(10.6715 11)"/>
</clipPath>
</defs>
</svg>
