<svg width="84" height="100" viewBox="0 0 84 100" fill="none" xmlns="http://www.w3.org/2000/svg">
<circle r="17.25" transform="matrix(-1 0 0 1 38.5 35.7)" fill="#F7F7F7" stroke="black" stroke-width="0.5"/>
<path d="M25.3609 10.05L50.2389 10.05L64.0117 40.35L11.5882 40.35L25.3609 10.05Z" fill="#F7F7F7" stroke="#222222" stroke-width="0.5"/>
<mask id="path-3-inside-1_111_182" fill="white">
<path fill-rule="evenodd" clip-rule="evenodd" d="M84 2.8V0L-7.62939e-06 3.19093e-06V11.2L74.2 11.2V99.4H84V11.2V2.8Z"/>
</mask>
<path fill-rule="evenodd" clip-rule="evenodd" d="M84 2.8V0L-7.62939e-06 3.19093e-06V11.2L74.2 11.2V99.4H84V11.2V2.8Z" fill="#F7F7F7"/>
<path d="M84 0L84 -0.5H84.5V0H84ZM-7.62939e-06 3.19093e-06H-0.500008V-0.499997L-7.62939e-06 -0.499997V3.19093e-06ZM-7.62939e-06 11.2V11.7H-0.500008V11.2H-7.62939e-06ZM74.2 11.2V10.7H74.7V11.2H74.2ZM74.2 99.4V99.9H73.7V99.4H74.2ZM84 99.4H84.5V99.9H84V99.4ZM84.5 0V2.8H83.5V0H84.5ZM-7.62939e-06 -0.499997L84 -0.5L84 0.5L-7.62939e-06 0.500003V-0.499997ZM-0.500008 11.2V3.19093e-06H0.499992V11.2H-0.500008ZM74.2 11.7L-7.62939e-06 11.7V10.7L74.2 10.7V11.7ZM73.7 99.4V11.2H74.7V99.4H73.7ZM84 99.9H74.2V98.9H84V99.9ZM84.5 11.2V99.4H83.5V11.2H84.5ZM84.5 2.8V11.2H83.5V2.8H84.5Z" fill="#222222" mask="url(#path-3-inside-1_111_182)"/>
</svg>
