<svg width="118" height="144" viewBox="0 0 118 144" fill="none" xmlns="http://www.w3.org/2000/svg">
<path d="M118 0L118 79.3359C118 115.2 91.3389 144 59.2469 144C27.1548 144 0 115.2 0 79.3359L0 72.8151L54.8034 72.8151V78.7925C54.8034 78.7925 54.8034 78.7925 54.8034 79.3359C54.8034 82.0528 56.7782 83.683 58.7531 83.683C61.2218 83.683 62.7029 81.5094 62.7029 79.3359L62.7029 60.317L0 60.317L0 24.4528L95.7824 24.4528L95.7824 79.3359C95.7824 101.615 79.4895 120.091 58.7531 120.091C53.8159 120.091 48.8787 119.004 43.9414 116.83C43.4477 116.83 43.4477 116.287 42.954 116.287C42.4603 116.287 42.4603 115.743 41.9665 115.743C40.9791 115.2 40.4854 114.657 39.4979 114.657C38.5105 114.113 37.523 113.026 36.0418 112.483C34.5607 111.396 33.5732 110.309 32.0921 108.679C31.5983 108.136 31.5983 108.136 31.1046 107.592C30.1172 106.506 29.6234 105.419 28.636 104.332L28.1423 103.789C27.6485 103.245 27.6485 103.245 27.6485 102.702C27.6485 102.158 27.1548 102.158 27.1548 101.615C26.1674 100.528 25.6736 98.8981 25.1799 97.2679C25.1799 97.2679 25.1799 96.7245 24.6862 96.7245H37.0293C37.0293 97.2679 37.523 97.2679 37.523 97.2679C39.9916 99.4415 41.9665 101.615 44.4352 103.245C48.8787 106.506 53.8159 108.136 59.2469 108.136C73.5649 108.136 85.4142 95.0943 85.4142 79.3359L85.4142 35.8642L11.3556 35.8642L11.3556 48.3623L73.5649 48.3623V79.3359C73.5649 88.0302 67.1464 95.6377 58.7531 95.6377C52.3347 95.6377 46.9038 91.2906 44.9289 84.7698L10.3682 84.7698C12.8368 111.94 33.5732 133.132 58.7531 133.132C85.4142 133.132 107.138 109.223 107.138 79.8792L107.138 11.4113L0 11.4113L0 0L118 0Z" fill="white"/>
</svg>
