<svg width="62" height="63" viewBox="0 0 62 63" fill="none" xmlns="http://www.w3.org/2000/svg">
<rect x="3.56149" y="4.13611" width="57.7289" height="58.5198" fill="white" stroke="#222222" stroke-width="0.5"/>
<rect x="0.75" y="0.75" width="57.7289" height="58.5198" fill="white" stroke="#222222" stroke-width="0.5"/>
<path d="M43.0938 10.75H17.9062C13.9494 10.75 10.75 13.9494 10.75 17.9062V42.1187C10.75 46.0756 13.9494 49.275 17.9062 49.275H43.0938C47.0506 49.275 50.25 46.0756 50.25 42.1187V17.9062C50.25 13.9494 47.0506 10.75 43.0938 10.75Z" stroke="black" stroke-width="0.5"/>
<path d="M20.8371 20.5002L20.8366 20.5002C20.4686 20.5162 20.2132 20.5163 19.9375 20.5163C19.8327 20.5163 19.7126 20.5478 19.6247 20.6492C19.5428 20.7438 19.525 20.8583 19.525 20.945V37.6663C19.525 37.7708 19.5476 37.898 19.6417 37.9981C19.7388 38.1013 19.8664 38.1275 19.97 38.1275H23.0575H23.0577H23.0579H23.0581H23.0583H23.0584H23.0586H23.0588H23.059H23.0592H23.0594H23.0596H23.0598H23.0599H23.0601H23.0603H23.0605H23.0607H23.0609H23.061H23.0612H23.0614H23.0616H23.0618H23.062H23.0621H23.0623H23.0625H23.0627H23.0629H23.063H23.0632H23.0634H23.0636H23.0638H23.0639H23.0641H23.0643H23.0645H23.0646H23.0648H23.065H23.0652H23.0653H23.0655H23.0657H23.0659H23.066H23.0662H23.0664H23.0666H23.0667H23.0669H23.0671H23.0673H23.0674H23.0676H23.0678H23.0679H23.0681H23.0683H23.0684H23.0686H23.0688H23.069H23.0691H23.0693H23.0695H23.0696H23.0698H23.07H23.0701H23.0703H23.0705H23.0706H23.0708H23.0709H23.0711H23.0713H23.0714H23.0716H23.0718H23.0719H23.0721H23.0722H23.0724H23.0726H23.0727H23.0729H23.0731H23.0732H23.0734H23.0735H23.0737H23.0739H23.074H23.0742H23.0743H23.0745H23.0746H23.0748H23.075H23.0751H23.0753H23.0754H23.0756H23.0757H23.0759H23.076H23.0762H23.0764H23.0765H23.0767H23.0768H23.077H23.0771H23.0773H23.0774H23.0776H23.0777H23.0779H23.078H23.0782H23.0783H23.0785H23.0786H23.0788H23.0789H23.0791H23.0792H23.0794H23.0795H23.0797H23.0798H23.08H23.0801H23.0803H23.0804H23.0805H23.0807H23.0808H23.081H23.0811H23.0813H23.0814H23.0816H23.0817H23.0819H23.082H23.0821H23.0823H23.0824H23.0826H23.0827H23.0829H23.083H23.0831H23.0833H23.0834H23.0836H23.0837H23.0838H23.084H23.0841H23.0843H23.0844H23.0845H23.0847H23.0848H23.0849H23.0851H23.0852H23.0854H23.0855H23.0856H23.0858H23.0859H23.086H23.0862H23.0863H23.0865H23.0866H23.0867H23.0869H23.087H23.0871H23.0873H23.0874H23.0875H23.0877H23.0878H23.0879H23.0881H23.0882H23.0883H23.0885H23.0886H23.0887H23.0888H23.089H23.0891H23.0892H23.0894H23.0895H23.0896H23.0898H23.0899H23.09H23.0901H23.0903H23.0904H23.0905H23.0907H23.0908H23.0909H23.091H23.0912H23.0913H23.0914H23.0916H23.0917H23.0918H23.0919H23.0921H23.0922H23.0923H23.0924H23.0926H23.0927H23.0928H23.0929H23.0931H23.0932H23.0933H23.0934H23.0935H23.0937H23.0938H23.0939H23.094H23.0942H23.0943H23.0944H23.0945H23.0946H23.0948H23.0949H23.095H23.0951H23.0952H23.0954H23.0955H23.0956H23.0957H23.0958H23.096H23.0961H23.0962H23.0963H23.0964H23.0966H23.0967H23.0968H23.0969H23.097H23.0972H23.0973H23.0974H23.0975H23.0976H23.0977H23.0979H23.098H23.0981H23.0982H23.0983H23.0984H23.0985H23.0987H23.0988H23.0989H23.099H23.0991H23.0992H23.0993H23.0995H23.0996H23.0997H23.0998H23.0999H23.1H23.1001H23.1003H23.1004H23.1005H23.1006H23.1007H23.1008H23.1009H23.101H23.1012H23.1013H23.1014H23.1015H23.1016H23.1017H23.1018H23.1019H23.102H23.1022H23.1023H23.1024H23.1025H23.1026H23.1027H23.1028H23.1029H23.103H23.1031H23.1032H23.1034H23.1035H23.1036H23.1037H23.1038H23.1039H23.104H23.1041H23.1042H23.1043H23.1044H23.1045H23.1046H23.1048H23.1049H23.105H23.1051H23.1052H23.1053H23.1054H23.1055H23.1056H23.1057H23.1058H23.1059H23.106H23.1061H23.1062H23.1063H23.1064H23.1066H23.1067H23.1068H23.1069H23.107H23.1071H23.1072H23.1073H23.1074H23.1075H23.1076H23.1077H23.1078H23.1079H23.108H23.1081H23.1082H23.1083H23.1084H23.1085H23.1086H23.1087H23.1088H23.1089H23.109H23.1091H23.1092H23.1093H23.1094H23.1095H23.1096H23.1097H23.1098H23.11H23.1101H23.1102H23.1103H23.1104H23.1105H23.1106H23.1107H23.1108H23.1109H23.111H23.1111H23.1112H23.1113H23.1114H23.1115H23.1116H23.1117H23.1118H23.1119H23.112H23.1121H23.1122H23.1123H23.1124H23.1125H23.1126H23.1127H23.1128H23.1129H23.1129H23.113H23.1131H23.1132H23.1133H23.1134H23.1135H23.1136H23.1137H23.1138H23.1139H23.114H23.1141H23.1142H23.1143H23.1144H23.1145H23.1146H23.1147H23.1148H23.1149H23.115H23.1151H23.1152H23.1153H23.1154H23.1155H23.1156H23.1157H23.1158H23.1159H23.116H23.1161H23.1162H23.1163H23.1164H23.1165H23.1166H23.1167H23.1168H23.1169H23.1169H23.117H23.1171H23.1172H23.1173H23.1174H23.1175H23.1176H23.1177H23.1178H23.1179H23.118H23.1181H23.1182H23.1183H23.1184H23.1185H23.1186H23.1187H23.1188H23.1189H23.119H23.1191H23.1192H23.1193H23.1193H23.1194H23.1195H23.1196H23.1197H23.1198H23.1199H23.12H23.1201H23.1202H23.1203H23.1204H23.1205H23.1206H23.1207H23.1208H23.1209H23.121H23.1211H23.1212H23.1213H23.1214H23.1214H23.1215H23.1216H23.1217H23.1218H23.1219H23.122H23.1221H23.1222H23.1223H23.1224H23.1225H23.1403L23.1578 38.125C23.3873 38.0922 23.5764 37.8905 23.5512 37.6355V32.6842C23.7341 32.6852 23.871 32.6884 23.9751 32.6988C24.1501 32.7163 24.4197 32.7163 24.7917 32.7163H24.8125C26.1619 32.7163 27.4127 32.5684 28.555 32.1484L28.5553 32.1483C29.657 31.7415 30.6083 31.0287 31.2884 30.0766C31.9755 29.1146 32.31 27.9065 32.31 26.47C32.31 25.7082 32.1744 24.981 31.9217 24.2734L31.9217 24.2734L31.9205 24.2703C31.6482 23.5383 31.2224 22.8739 30.6768 22.3282L30.6768 22.3282L30.6744 22.3259C30.0309 21.6993 29.2525 21.2253 28.4066 20.9371C27.4603 20.5829 26.3244 20.4188 24.975 20.4188H24.9731C24.4868 20.4188 23.996 20.4188 23.4882 20.4351C23.2469 20.4429 23.0129 20.447 22.7845 20.4509L22.7607 20.4513C22.5254 20.4554 22.2955 20.4595 22.0732 20.4677C21.8626 20.4755 21.6594 20.4795 21.4595 20.4835L21.4418 20.4838C21.237 20.4879 21.0352 20.492 20.8371 20.5002ZM26.6136 28.8618L26.6135 28.8617L26.6041 28.8647C26.0285 29.0514 25.4208 29.145 24.8125 29.145H23.9512C23.8317 29.145 23.705 29.1385 23.5675 29.1295V24.1325C23.6732 24.1283 23.8085 24.1278 23.9713 24.136L23.9841 24.1366L23.9969 24.1359C24.2976 24.1201 24.664 24.12 25.0887 24.12V24.1201L25.0948 24.1199C25.733 24.1044 26.348 24.1979 26.9123 24.4267L26.9123 24.4268L26.9176 24.4288C27.3347 24.587 27.6826 24.8748 27.9315 25.2535C28.1656 25.6506 28.2823 26.1056 28.2676 26.5595L28.2675 26.5594V26.5675C28.2675 27.2447 28.1141 27.7318 27.8241 28.0783C27.4946 28.452 27.0804 28.7306 26.6136 28.8618Z" stroke="black" stroke-width="0.5"/>
<path d="M42.0823 28.5918L42.0823 28.5919L42.0882 28.5948C42.2365 28.669 42.3939 28.6492 42.5467 28.6153L42.5923 28.6051L42.6312 28.5792C42.758 28.4947 42.8237 28.3466 42.8237 28.2087V25.56C42.8237 25.4636 42.8009 25.3724 42.7859 25.3129C42.7852 25.31 42.7845 25.3071 42.7838 25.3043L42.7771 25.2777L42.7648 25.2532C42.7347 25.1929 42.6919 25.1365 42.6423 25.0904C42.5982 25.0494 42.5367 25.0057 42.4604 24.9821C42.0072 24.7986 41.5203 24.6648 41.0159 24.5974C40.338 24.4983 39.6439 24.4487 38.9662 24.4487C37.7912 24.4487 36.7907 24.6301 35.9804 25.0427C35.2414 25.3874 34.6039 25.9385 34.1717 26.63L34.1717 26.6299L34.1688 26.6347C33.7905 27.2711 33.5819 27.9799 33.5812 28.7252C33.5644 29.3356 33.7043 29.9438 33.9814 30.498L33.9811 30.4982L33.9867 30.5082C34.3133 31.0926 34.7608 31.592 35.2953 31.9714L35.2953 31.9714L35.2991 31.974C36.0307 32.4728 36.8125 32.8723 37.6606 33.1719C38.055 33.3249 38.3805 33.4601 38.6379 33.5819C38.8992 33.7056 39.0762 33.8091 39.1823 33.8953C39.4152 34.0844 39.48 34.2317 39.48 34.3512C39.48 34.5472 39.3575 34.7319 39.191 34.8047L39.1909 34.8044L39.1794 34.8101C38.9379 34.9309 38.5447 35.0112 37.9425 35.0112C37.313 35.0112 36.6845 34.9325 36.0886 34.7757L36.0886 34.7756L36.0804 34.7737C35.3916 34.6171 34.7513 34.3674 34.1421 34.0089C34.105 33.9848 34.0486 33.9539 33.978 33.9421C33.8931 33.928 33.8041 33.9443 33.7251 33.997C33.5723 34.0988 33.5487 34.2712 33.5487 34.3512V37.1655C33.5254 37.4194 33.6885 37.6103 33.8534 37.7045L33.8622 37.7096L33.8714 37.7138C34.4106 37.9666 34.9996 38.1519 35.5893 38.2533C36.3372 38.4026 37.0839 38.4687 37.845 38.4687C39.0381 38.4687 40.0475 38.2868 40.8819 37.9297C41.6575 37.6188 42.329 37.0845 42.811 36.3958L42.8111 36.3959L42.8142 36.3912C43.2634 35.7174 43.5061 34.9059 43.49 34.092C43.5064 33.467 43.3669 32.8597 43.0898 32.3057L43.0901 32.3056L43.0845 32.2955C42.7546 31.7052 42.2863 31.2203 41.7167 30.8578L41.715 30.8567C40.9219 30.3611 40.0621 29.9472 39.1678 29.6482C38.7864 29.4891 38.4065 29.3147 38.0433 29.1253C37.8551 29.0238 37.6905 28.8984 37.5706 28.7533C37.4943 28.6503 37.4612 28.5573 37.4612 28.485C37.4612 28.3908 37.4937 28.2766 37.5498 28.1843C37.624 28.0813 37.7449 28.0009 37.9012 27.9648L37.9012 27.9649L37.9086 27.963C38.1992 27.8865 38.5142 27.8425 38.8075 27.8572L38.8075 27.8575H38.82C39.4154 27.8575 39.9985 27.9358 40.5871 28.0631L40.5871 28.0631L40.5896 28.0636C41.1215 28.1731 41.6184 28.3444 42.0823 28.5918Z" stroke="black" stroke-width="0.5"/>
</svg>
