<svg width="62" height="63" viewBox="0 0 62 63" fill="none" xmlns="http://www.w3.org/2000/svg">
<rect x="3.87439" y="3.5614" width="57.7289" height="58.5198" fill="white" stroke="#222222" stroke-width="0.5"/>
<rect x="0.75" y="0.75" width="57.7289" height="58.5198" fill="white" stroke="#222222" stroke-width="0.5"/>
<g clip-path="url(#clip0_544_354)">
<path d="M49.75 30.2382C49.75 40.886 41.1479 49.4882 30.5 49.4882C19.8521 49.4882 11.25 40.886 11.25 30.2382C11.25 19.5903 19.8521 10.9882 30.5 10.9882C41.1479 10.9882 49.75 19.5903 49.75 30.2382Z" stroke="black" stroke-width="0.5"/>
<path d="M28.6813 33.6855C27.9282 35.7128 26.4702 37.5108 23.8255 37.6017L21.5962 24.1082C23.6421 24.3044 25.2753 25.9165 25.4977 28.0041L25.4982 28.013L25.5007 28.0559L25.5104 28.219L25.5449 28.8046C25.5735 29.2911 25.6115 29.9441 25.6496 30.6104C25.7262 31.9502 25.8016 33.3249 25.8016 33.5288L26.2852 33.6177L28.418 28.0114L28.418 28.0114L28.4187 28.0096C28.8071 26.964 29.3531 25.9827 30.129 25.2648C30.8565 24.5916 31.7948 24.1416 33.0234 24.0939L33.0467 24.2711C33.08 24.5251 33.1276 24.8886 33.1847 25.326C33.299 26.201 33.4513 27.3719 33.6036 28.5562C33.7559 29.7405 33.9082 30.9378 34.0224 31.8655C34.0795 32.3294 34.127 32.7252 34.1602 33.0181C34.1768 33.1647 34.1897 33.2846 34.1984 33.374C34.2028 33.4188 34.206 33.455 34.2082 33.4826C34.2092 33.4964 34.21 33.5074 34.2104 33.5158L34.2108 33.5256C34.2109 33.5278 34.2109 33.5288 34.2109 33.5288V33.5288L34.6994 33.6039L36.4647 28.0037C36.8521 26.9626 37.4115 25.9845 38.215 25.2679C38.9412 24.6203 39.876 24.1774 41.0905 24.1014L37.0939 33.7992L37.0898 33.809L37.0866 33.8191C36.4092 35.9641 34.4179 37.5068 32.1791 37.6008L32.1577 37.4484L32.0196 36.4657C31.9054 35.6517 31.7531 34.5644 31.6007 33.4714C31.4484 32.3784 31.2961 31.2799 31.1819 30.4433C31.1248 30.025 31.0772 29.6725 31.044 29.4191C31.0274 29.2922 31.0144 29.1908 31.0056 29.1186C31.0004 29.076 30.9974 29.049 30.9958 29.0338C30.9941 29.019 30.9937 29.0154 30.9937 29.0194L30.5104 28.9297L28.6823 33.6828L28.6823 33.6828L28.6813 33.6855Z" stroke="black" stroke-width="0.5"/>
</g>
<defs>
<clipPath id="clip0_544_354">
<rect width="39" height="39" fill="white" transform="translate(11 10.7382)"/>
</clipPath>
</defs>
</svg>
